<svg xmlns="http://www.w3.org/2000/svg" viewBox="0 0 160 160" fill="none">
  <rect width="160" height="160" rx="26" fill="white"/>
  <circle cx="80" cy="78" r="58" stroke="#0f2a1e" stroke-width="6" />
  <path d="M38 106c7-20 24-34 42-34s35 14 42 34" stroke="#25a36a" stroke-width="6" stroke-linecap="round"/>
  <path d="M80 42c-22 0-40 18-40 40v38" stroke="#0f2a1e" stroke-width="6" stroke-linecap="round"/>
  <path d="M80 42c22 0 40 18 40 40v38" stroke="#0f2a1e" stroke-width="6" stroke-linecap="round"/>
  <path d="M80 60c-12 0-22 10-22 22v38" stroke="#25a36a" stroke-width="6" stroke-linecap="round"/>
  <path d="M80 60c12 0 22 10 22 22v38" stroke="#25a36a" stroke-width="6" stroke-linecap="round"/>
  <line x1="80" y1="20" x2="80" y2="44" stroke="#0f2a1e" stroke-width="7" stroke-linecap="round"/>
  <line x1="68" y1="32" x2="92" y2="32" stroke="#0f2a1e" stroke-width="7" stroke-linecap="round"/>
  <text x="80" y="138" text-anchor="middle" fill="#0f2a1e" font-family="Playfair Display, serif" font-size="16" letter-spacing="4">PLUS ARCH</text>
</svg>
